<svg xmlns="http://www.w3.org/2000/svg" width="1280" height="832" fill="none"><g filter="url(#a)" style="mix-blend-mode:multiply"><path fill="url(#b)" fill-rule="evenodd" d="M1191.15 702.326C1054.64 377.249 680.191 85.219 554.526 283.642c-125.665 198.423 160.94 468.242 334.835 489.964 173.899 21.722 438.309 253.794 301.789-71.28Z" clip-rule="evenodd"/></g><g filter="url(#c)" opacity=".7" style="mix-blend-mode:multiply"><path fill="url(#d)" fill-rule="evenodd" d="M441.425 167.373C439.289-28.135 291.204-97.572 115.838 34.625-59.529 166.82-96.372 51.797-166.664 104.586s13.842 351.598 246.28 285.948c232.437-65.649 363.944-27.653 361.809-223.161Z" clip-rule="evenodd"/></g><g filter="url(#e)" style="mix-blend-mode:multiply"><path fill="url(#f)" fill-rule="evenodd" d="M462.002 565.754c156.019-191.309 133.752-462.709-82.665-479.742C162.92 68.979 136.836 410.783 219.74 479.34c82.904 68.557 86.242 277.723 242.262 86.414Z" clip-rule="evenodd"/></g><defs><linearGradient id="b" x1="1356.74" x2="677.386" y1="700.103" y2="134.015" gradientUnits="userSpaceOnUse"><stop stop-color="#80D2CD" stop-opacity=".478"/><stop offset="1" stop-color="#80A6D2"/></linearGradient><linearGradient id="d" x1="-81.938" x2="476.244" y1="562.233" y2="430.383" gradientUnits="userSpaceOnUse"><stop stop-color="#B0E0D7" stop-opacity=".447"/><stop offset="1" stop-color="#A776BF"/></linearGradient><linearGradient id="f" x1="563.11" x2="563.11" y1="644.413" y2="85.397" gradientUnits="userSpaceOnUse"><stop stop-color="#DEFFFD" stop-opacity=".681"/><stop offset="1" stop-color="#BFE8D0"/></linearGradient><filter id="a" width="1071.31" height="1021.12" x="340.608" y="35.99" color-interpolation-filters="sRGB" filterUnits="userSpaceOnUse"><feFlood flood-opacity="0" result="BackgroundImageFix"/><feBlend in="SourceGraphic" in2="BackgroundImageFix" result="shape"/><feGaussianBlur result="effect1_foregroundBlur_12_16" stdDeviation="91.496"/></filter><filter id="c" width="885.023" height="686.07" x="-317.153" y="-159.741" color-interpolation-filters="sRGB" filterUnits="userSpaceOnUse"><feFlood flood-opacity="0" result="BackgroundImageFix"/><feBlend in="SourceGraphic" in2="BackgroundImageFix" result="shape"/><feGaussianBlur result="effect1_foregroundBlur_12_16" stdDeviation="63.21"/></filter><filter id="e" width="639.779" height="811.856" x="49.751" y="-41.023" color-interpolation-filters="sRGB" filterUnits="userSpaceOnUse"><feFlood flood-opacity="0" result="BackgroundImageFix"/><feBlend in="SourceGraphic" in2="BackgroundImageFix" result="shape"/><feGaussianBlur result="effect1_foregroundBlur_12_16" stdDeviation="63.21"/></filter></defs></svg>