<svg xmlns="http://www.w3.org/2000/svg" width="17" height="15" fill="none"><path fill="#03014C" d="M7.88 9.26c.541 0 1.06-.216 1.444-.603a2.069 2.069 0 0 0 .59-1.636L7.703 9.253c.058.005.117.008.177.008ZM14.641.829l-.78-.785a.145.145 0 0 0-.206 0l-1.994 2.011c-1.1-.566-2.337-.85-3.71-.85-3.505 0-6.121 1.841-7.847 5.524a1.117 1.117 0 0 0 0 .947c.69 1.465 1.52 2.638 2.491 3.522l-1.93 1.945a.148.148 0 0 0 0 .208l.78.785a.145.145 0 0 0 .205 0l12.99-13.099a.147.147 0 0 0 0-.208ZM4.669 7.2c0-.559.144-1.108.417-1.595a3.225 3.225 0 0 1 1.142-1.181 3.19 3.19 0 0 1 3.163-.08l-.887.895a2.028 2.028 0 0 0-2.069.505 2.066 2.066 0 0 0-.501 2.087l-.887.894A3.242 3.242 0 0 1 4.669 7.2Z" opacity=".3"/><path fill="#03014C" d="M16.098 6.817c-.655-1.338-1.436-2.429-2.34-3.273l-2.686 2.602c.227.573.277 1.197.145 1.797a3.15 3.15 0 0 1-.889 1.585 3.312 3.312 0 0 1-1.635.86 3.38 3.38 0 0 1-1.856-.14L4.56 12.456c1.056.473 2.231.71 3.525.71 3.58 0 6.251-1.806 8.013-5.419a1.06 1.06 0 0 0 0-.93Z" opacity=".3"/></svg>