<svg width="22" height="22" viewBox="0 0 22 22" fill="none" xmlns="http://www.w3.org/2000/svg">
<path d="M10.164 2.20261C12.348 2.20261 14.1291 3.95325 14.1291 6.10856V10.3224H8.75875C8.37387 10.3224 8.06955 10.6215 8.06955 10.9998C8.06955 11.3693 8.37387 11.6772 8.75875 11.6772H14.1291V15.8823C14.1291 18.0376 12.348 19.797 10.1461 19.797H5.78713C3.59423 19.797 1.81305 18.0464 1.81305 15.8911V6.11736C1.81305 3.95325 3.60318 2.20261 5.79608 2.20261H10.164ZM16.3638 7.96495C16.6277 7.69224 17.0588 7.69224 17.3227 7.95615L19.8915 10.5161C20.0234 10.6481 20.0938 10.8152 20.0938 11C20.0938 11.1759 20.0234 11.3519 19.8915 11.475L17.3227 14.035C17.1907 14.167 17.0148 14.2374 16.8476 14.2374C16.6717 14.2374 16.4958 14.167 16.3638 14.035C16.0999 13.7711 16.0999 13.34 16.3638 13.0761L17.7713 11.6774H14.1293V10.3226H17.7713L16.3638 8.92384C16.0999 8.65993 16.0999 8.22886 16.3638 7.96495Z" fill="#71D875"/>
</svg>
