<svg xmlns="http://www.w3.org/2000/svg" width="27" height="26" fill="none"><path fill="#D0D0D0" d="M13.812 15.607a2.333 2.333 0 1 0-.635-4.622 2.333 2.333 0 0 0 .635 4.622Z"/><path fill="#D0D0D0" d="M16.192 7.694h-5.41c-.733 0-1.43.29-1.953.813a2.752 2.752 0 0 0-.813 1.954v5.763c0 .734.29 1.43.813 1.954.526.526 1.22.813 1.954.813h5.41c.734 0 1.43-.29 1.953-.813.526-.526.813-1.22.813-1.954v-5.76c0-.735-.29-1.431-.813-1.954a2.75 2.75 0 0 0-1.954-.816Zm-2.683 9.163a3.563 3.563 0 0 1 0-7.125 3.563 3.563 0 0 1 0 7.125Zm3.619-6.337a.845.845 0 0 1 0-1.688.845.845 0 0 1 0 1.688Z"/><path fill="#D0D0D0" d="M13.152.013C5.989.013.182 5.819.182 12.982c0 7.163 5.807 12.969 12.97 12.969S26.12 20.145 26.12 12.98C26.12 5.82 20.312.014 13.15.014Zm6.804 16.213a3.773 3.773 0 0 1-3.763 3.764h-5.41a3.773 3.773 0 0 1-3.762-3.764v-5.762A3.773 3.773 0 0 1 10.784 6.7h5.41a3.773 3.773 0 0 1 3.762 3.763v5.762Z"/></svg>