<svg xmlns="http://www.w3.org/2000/svg" width="27" height="26" fill="none"><path fill="#D0D0D0" d="M13.598.013C6.435.013.628 5.819.628 12.982c0 7.163 5.807 12.969 12.97 12.969 7.162 0 12.968-5.806 12.968-12.97C26.566 5.82 20.758.014 13.598.014Zm-2.633 18.54h-2.45v-7.881h2.45v7.882Zm-1.242-8.85c-.775 0-1.273-.548-1.273-1.224 0-.694.516-1.225 1.306-1.225s1.273.531 1.29 1.225c-.002.676-.5 1.225-1.323 1.225Zm10.189 8.85h-2.45v-4.37c0-1.016-.355-1.71-1.242-1.71-.676 0-1.08.468-1.258.92-.063.16-.081.386-.081.613v4.545h-2.45v-5.363c0-.984-.033-1.807-.063-2.516h2.13l.11 1.095h.05c.322-.516 1.112-1.273 2.433-1.273 1.614 0 2.82 1.08 2.82 3.402v4.658Z"/></svg>