<?xml version="1.0" standalone="no"?>
<!DOCTYPE svg PUBLIC "-//W3C//DTD SVG 20010904//EN"
 "http://www.w3.org/TR/2001/REC-SVG-20010904/DTD/svg10.dtd">
<svg version="1.0" xmlns="http://www.w3.org/2000/svg"
 width="700.000000pt" height="700.000000pt" viewBox="0 0 700.000000 700.000000"
 preserveAspectRatio="xMidYMid meet">
<metadata>
Created by potrace 1.14, written by Peter Selinger 2001-2017
</metadata>
<g transform="translate(0.000000,700.000000) scale(0.100000,-0.100000)"
fill="#000000" stroke="none">
<path d="M3373 6545 c-159 -43 -293 -169 -342 -321 -11 -33 -22 -77 -26 -98
-9 -54 -52 -96 -100 -96 -46 0 -67 11 -134 72 -176 160 -449 193 -674 80 -98
-49 -210 -161 -259 -259 -55 -109 -72 -202 -64 -339 l7 -113 -30 -33 c-32 -36
-26 -36 -218 -23 -88 6 -111 4 -171 -14 -314 -95 -449 -465 -272 -744 21 -34
30 -60 30 -90 -1 -71 -40 -101 -143 -111 -244 -23 -459 -213 -522 -461 -8 -32
-15 -100 -15 -150 1 -276 133 -500 340 -576 75 -27 110 -65 110 -119 0 -31 -9
-49 -49 -97 -104 -124 -134 -226 -135 -448 -1 -131 2 -160 22 -225 40 -128 88
-206 182 -301 73 -73 101 -94 180 -132 104 -50 208 -77 295 -77 31 0 69 -7 85
-15 50 -26 59 -56 53 -180 -5 -87 -2 -124 12 -170 41 -145 136 -258 267 -320
132 -63 275 -66 409 -10 77 33 111 32 151 -3 30 -28 32 -32 39 -138 13 -188
59 -294 179 -414 86 -87 164 -132 276 -160 192 -49 389 -4 544 124 47 40 61
46 100 46 39 0 53 -6 100 -46 68 -57 195 -118 278 -135 136 -26 303 3 428 76
70 40 183 159 222 232 41 78 72 198 72 281 0 75 19 121 59 145 39 23 61 22
130 -8 280 -117 591 35 676 330 14 46 17 83 12 170 -6 124 3 154 53 180 16 8
54 15 85 15 87 0 191 27 295 77 79 38 107 59 180 132 94 95 142 173 182 301
19 63 23 96 22 200 0 107 -4 136 -27 205 -33 100 -83 185 -159 270 -52 59 -58
71 -58 109 0 59 26 88 102 116 247 88 407 314 408 572 0 105 -15 168 -62 268
-32 67 -57 101 -117 160 -45 45 -102 89 -138 108 -67 35 -195 72 -251 72 -104
0 -145 97 -83 196 97 151 106 333 25 498 -56 114 -169 209 -296 247 -60 18
-83 20 -171 14 -192 -12 -186 -13 -218 23 l-29 33 6 122 c7 145 -13 238 -73
346 -47 85 -150 187 -234 234 -224 125 -515 92 -699 -78 -57 -53 -80 -65 -124
-65 -59 0 -84 31 -112 140 -29 111 -58 164 -131 241 -119 125 -313 179 -480
134z m170 -1755 c50 -67 135 -132 232 -181 218 -108 465 -85 661 61 l51 38 30
-46 c202 -310 270 -756 188 -1239 -8 -48 -33 -160 -55 -248 -185 -746 -530
-1266 -939 -1415 -45 -17 -86 -30 -91 -30 -6 0 -10 102 -10 269 l0 269 46 16
c25 8 67 31 93 50 123 91 140 200 38 252 -42 22 -88 9 -133 -38 -54 -55 -83
-68 -154 -68 -71 0 -100 13 -154 69 -49 50 -94 62 -141 36 -65 -34 -77 -107
-30 -174 35 -51 109 -107 169 -127 l46 -16 0 -269 c0 -167 -4 -269 -10 -269
-5 0 -46 13 -91 30 -419 153 -772 695 -954 1468 -104 445 -99 827 17 1167 24
68 97 219 135 276 l25 38 46 -35 c144 -111 340 -157 512 -120 144 31 307 130
387 236 21 27 40 49 43 49 3 0 22 -22 43 -49z m-1418 -352 c3 -3 -3 -39 -15
-79 -37 -135 -61 -292 -67 -448 l-6 -153 -66 6 c-259 27 -500 110 -577 200
-28 33 -34 48 -34 85 1 90 78 210 184 285 126 91 227 117 428 113 81 -2 150
-6 153 -9z m3171 -21 c184 -61 343 -231 344 -368 0 -37 -6 -52 -34 -85 -77
-90 -318 -173 -577 -200 l-66 -6 -6 153 c-6 155 -30 313 -67 446 -11 40 -20
75 -20 77 0 10 71 14 205 11 120 -2 151 -6 221 -28z"/>
<path d="M2889 3761 c-101 -32 -149 -150 -98 -240 64 -114 223 -116 287 -3 58
104 -6 231 -123 246 -22 3 -52 1 -66 -3z"/>
<path d="M4019 3761 c-103 -33 -149 -150 -97 -243 54 -95 181 -113 255 -36 42
45 53 70 53 118 0 106 -113 192 -211 161z"/>
</g>
</svg>
