<svg width="35" height="35" viewBox="0 0 35 35" fill="none" xmlns="http://www.w3.org/2000/svg">
<path d="M22.2497 18.2178C25.7356 19.237 28.7974 21.3584 30.9762 24.264C33.155 27.1697 34.3335 30.7033 34.3351 34.3351H0.735962C0.736707 30.703 1.91488 27.1691 4.09381 24.2633C6.27273 21.3574 9.33497 19.2362 12.8213 18.2178L17.5355 25.2892L22.2497 18.2178ZM25.9353 9.13574C25.9353 11.3635 25.0503 13.5 23.4751 15.0753C21.8998 16.6505 19.7633 17.5355 17.5355 17.5355C15.3078 17.5355 13.1712 16.6505 11.596 15.0753C10.0207 13.5 9.13574 11.3635 9.13574 9.13574C9.13574 6.90798 10.0207 4.77146 11.596 3.1962C13.1712 1.62094 15.3078 0.735962 17.5355 0.735962C19.7633 0.735962 21.8998 1.62094 23.4751 3.1962C25.0503 4.77146 25.9353 6.90798 25.9353 9.13574Z" fill="#A3A3A3"/>
</svg>
