<svg width="210" height="210" viewBox="0 0 210 210" fill="none" xmlns="http://www.w3.org/2000/svg">
<rect width="210" height="210" fill="#71D875"/>
<path d="M183.737 111.891C187.892 110.686 191.483 108.042 193.868 104.432C196.252 100.822 197.275 96.4812 196.751 92.1865C196.228 87.8917 194.194 83.9232 191.013 80.9909C187.832 78.0587 183.711 76.354 179.388 76.1819C178.794 76.1594 178.218 75.9756 177.72 75.6501C177.223 75.3246 176.824 74.8698 176.566 74.3345C176.308 73.7992 176.2 73.2036 176.255 72.6118C176.31 72.0201 176.525 71.4544 176.877 70.9756C178.495 68.7466 179.464 66.1135 179.679 63.3676C179.893 60.6217 179.344 57.87 178.092 55.4167C176.84 52.9635 174.934 50.9043 172.585 49.4669C170.235 48.0294 167.534 47.2698 164.78 47.2719C163.413 47.2849 162.053 47.4806 160.737 47.8538C160.199 48.0081 159.629 48.0221 159.083 47.8943C158.538 47.7666 158.034 47.5013 157.619 47.1238C157.205 46.7463 156.894 46.2691 156.716 45.7375C156.538 45.206 156.499 44.6377 156.603 44.0869C156.818 42.9663 156.931 41.8285 156.94 40.6875C156.936 37.0394 155.839 33.4762 153.789 30.4583C151.74 27.4403 148.832 25.1063 145.443 23.7576C142.053 22.409 138.337 22.1078 134.774 22.8929C131.212 23.678 127.966 25.5134 125.457 28.1619C125.033 28.6167 124.488 28.9417 123.887 29.099C123.285 29.2562 122.651 29.2392 122.058 29.05C121.463 28.8495 120.936 28.484 120.541 27.996C120.145 27.5081 119.896 26.9178 119.822 26.2938C119.392 22.6652 117.645 19.3208 114.913 16.8941C112.181 14.4675 108.654 13.1271 105 13.1271C101.346 13.1271 97.8189 14.4675 95.087 16.8941C92.3551 19.3208 90.6083 22.6652 90.1775 26.2938C90.1041 26.9178 89.8551 27.5081 89.4593 27.996C89.0635 28.484 88.5373 28.8495 87.9418 29.05C87.3493 29.2392 86.7152 29.2562 86.1133 29.099C85.5115 28.9417 84.9667 28.6167 84.5425 28.1619C82.0336 25.5134 78.7883 23.678 75.2257 22.8929C71.6631 22.1078 67.9469 22.409 64.5572 23.7576C61.1675 25.1063 58.2601 27.4403 56.2106 30.4583C54.1611 33.4762 53.0636 37.0394 53.06 40.6875C53.0688 41.8285 53.1816 42.9663 53.3968 44.0869C53.5005 44.6377 53.4616 45.206 53.2837 45.7375C53.1058 46.2691 52.795 46.7463 52.3806 47.1238C51.9663 47.5013 51.4623 47.7666 50.9165 47.8943C50.3707 48.0221 49.8013 48.0081 49.2625 47.8538C47.9469 47.4806 46.5874 47.2849 45.22 47.2719C42.4657 47.2698 39.7645 48.0294 37.4151 49.4669C35.0657 50.9043 33.1596 52.9635 31.9076 55.4167C30.6557 57.87 30.1066 60.6217 30.3211 63.3676C30.5356 66.1135 31.5053 68.7466 33.1231 70.9756C33.4752 71.4544 33.6902 72.0201 33.745 72.6118C33.7998 73.2036 33.6923 73.7992 33.4341 74.3345C33.1759 74.8698 32.7768 75.3246 32.2795 75.6501C31.7823 75.9756 31.2057 76.1594 30.6118 76.1819C25.9043 76.362 21.4504 78.3623 18.1884 81.7613C14.9265 85.1603 13.1112 89.6928 13.125 94.4038C13.125 101.478 16.0956 109.9 24.4562 112.319C25.0095 112.485 25.5098 112.793 25.9074 113.212C26.3049 113.631 26.5859 114.147 26.7225 114.708C26.8522 115.269 26.8359 115.853 26.675 116.405C26.5141 116.958 26.2141 117.459 25.8037 117.863C22.3737 121.078 20.9956 125.396 20.9956 132.746C20.9972 138.366 23.2305 143.756 27.2045 147.73C31.1785 151.704 36.568 153.937 42.1881 153.939L42.5862 153.908C43.0787 153.91 43.5646 154.022 44.0093 154.233C44.454 154.445 44.8464 154.752 45.1587 155.133C45.4645 155.516 45.6809 155.962 45.7922 156.438C45.9035 156.915 45.9068 157.411 45.8018 157.889C45.587 158.927 45.4742 159.984 45.465 161.044C45.4706 165.006 47.047 168.804 49.8485 171.605C52.65 174.407 56.448 175.983 60.41 175.989C62.7769 175.998 65.1104 175.43 67.2087 174.335C67.7266 174.069 68.3061 173.946 68.8874 173.978C69.4687 174.01 70.0309 174.197 70.5162 174.519C70.9997 174.837 71.3923 175.275 71.6553 175.79C71.9184 176.306 72.043 176.881 72.0168 177.459C71.973 177.845 71.9525 178.234 71.9556 178.623C71.9556 183.458 73.8744 188.096 77.2908 191.518C80.7072 194.94 85.3419 196.867 90.1775 196.875C94.8607 196.888 99.3646 195.075 102.734 191.822C103.351 191.252 104.16 190.935 105 190.935C105.84 190.935 106.649 191.252 107.266 191.822C110.635 195.075 115.139 196.888 119.822 196.875C124.658 196.867 129.293 194.94 132.709 191.518C136.126 188.096 138.044 183.458 138.044 178.623C138.049 178.336 138.039 178.05 138.014 177.765C137.98 177.163 138.097 176.563 138.354 176.017C138.61 175.472 138.999 174.999 139.484 174.641C139.959 174.302 140.515 174.095 141.096 174.041C141.677 173.987 142.262 174.089 142.791 174.335C144.89 175.43 147.223 175.998 149.59 175.989C153.552 175.983 157.35 174.407 160.151 171.605C162.953 168.804 164.529 165.006 164.535 161.044C164.526 159.984 164.413 158.927 164.198 157.889C164.093 157.411 164.096 156.915 164.208 156.438C164.319 155.962 164.535 155.516 164.841 155.133C165.153 154.752 165.546 154.445 165.991 154.233C166.435 154.022 166.921 153.91 167.414 153.908C167.475 153.908 167.751 153.939 167.842 153.939C173.458 153.931 178.84 151.694 182.808 147.721C186.776 143.747 189.004 138.362 189.004 132.746C189.008 129.877 188.422 127.038 187.285 124.404C186.147 121.77 184.481 119.398 182.389 117.434C181.979 117.031 181.679 116.529 181.518 115.977C181.357 115.424 181.341 114.84 181.471 114.279C181.602 113.716 181.881 113.198 182.28 112.778C182.678 112.358 183.181 112.052 183.737 111.891ZM108.335 158.122V141.946C111.201 141.268 113.69 139.497 115.272 137.012C115.7 136.256 115.811 135.36 115.579 134.521C115.348 133.683 114.793 132.971 114.037 132.541C113.283 132.102 112.387 131.975 111.54 132.187C110.693 132.399 109.962 132.932 109.502 133.674C108.977 134.358 108.292 134.902 107.507 135.258C106.721 135.613 105.86 135.769 105 135.711C104.152 135.766 103.302 135.616 102.524 135.274C101.746 134.932 101.061 134.407 100.529 133.745C100.098 132.973 99.3802 132.403 98.5309 132.159C97.6817 131.915 96.7704 132.017 95.9962 132.443C95.2277 132.886 94.6641 133.613 94.427 134.468C94.1898 135.323 94.298 136.237 94.7283 137.012C96.3098 139.497 98.7984 141.268 101.665 141.946V158.122C90.8604 155.988 77.1863 143.349 69.9833 112.966C64.0819 87.9541 71.5513 73.9799 75.4193 68.7431C77.6923 70.8056 80.4227 72.2987 83.3857 73.0995C86.3487 73.9002 89.4595 73.9858 92.4621 73.3491C97.574 72.1389 102.047 69.0577 105 64.7128C107.953 69.0577 112.426 72.1389 117.538 73.3491C120.535 73.9888 123.641 73.9046 126.6 73.1036C129.558 72.3025 132.282 70.8077 134.547 68.7431C138.482 74.0136 145.918 87.9541 140.017 112.966C132.814 143.346 119.14 155.988 108.335 158.122ZM41.104 90.2234C40.8038 89.6569 39.9035 87.9572 42.3045 84.1536C47.9088 75.4499 58.5112 75.9491 63.9808 76.9169C61.8721 83.5062 60.924 90.4116 61.1786 97.3254C53.1426 96.5904 43.2385 94.2598 41.104 90.2234ZM167.695 84.1536C170.096 87.9541 169.196 89.6569 168.896 90.2234C166.761 94.2568 156.86 96.5935 148.821 97.3285C149.076 90.4137 148.128 83.5071 146.019 76.9169C151.489 75.9491 162.094 75.4469 167.695 84.1536Z" fill="black"/>
<path d="M88.0582 106.997C90.8202 106.997 93.0593 104.758 93.0593 101.996C93.0593 99.2337 90.8202 96.9946 88.0582 96.9946C85.2962 96.9946 83.0571 99.2337 83.0571 101.996C83.0571 104.758 85.2962 106.997 88.0582 106.997Z" fill="black"/>
<path d="M121.942 106.997C124.704 106.997 126.943 104.758 126.943 101.996C126.943 99.2337 124.704 96.9946 121.942 96.9946C119.18 96.9946 116.941 99.2337 116.941 101.996C116.941 104.758 119.18 106.997 121.942 106.997Z" fill="black"/>
</svg>
