<svg width="37" height="37" viewBox="0 0 37 37" fill="none" xmlns="http://www.w3.org/2000/svg">
<rect x="0.928961" y="0.627416" width="35.3926" height="35.3926" rx="16.826" stroke="#71D875" stroke-width="1.16041"/>
<g clip-path="url(#clip0_1_250)">
<path d="M20.7856 24.9895C20.5953 24.5961 20.7634 24.1201 21.1569 23.9298C22.2516 23.403 23.1781 22.5844 23.8381 21.5595C24.5139 20.5093 24.8725 19.2908 24.8725 18.0343C24.8725 14.4298 21.9406 11.4979 18.3361 11.4979C14.7315 11.4979 11.7997 14.4298 11.7997 18.0343C11.7997 19.2908 12.1582 20.5093 12.8309 21.5627C13.4877 22.5876 14.4174 23.4062 15.5121 23.9329C15.9056 24.1233 16.0737 24.5961 15.8833 24.9927C15.693 25.3862 15.2202 25.5543 14.8236 25.3639C13.4623 24.7103 12.3105 23.695 11.4951 22.4194C10.6574 21.1121 10.2132 19.5954 10.2132 18.0343C10.2132 15.864 11.0572 13.8237 12.5929 12.2912C14.1255 10.7555 16.1657 9.91144 18.3361 9.91144C20.5064 9.91144 22.5466 10.7555 24.0792 12.2912C25.6149 13.8269 26.459 15.864 26.459 18.0343C26.459 19.5954 26.0147 21.1121 25.1739 22.4194C24.3553 23.6918 23.2035 24.7103 21.8454 25.3639C21.4488 25.5512 20.976 25.3862 20.7856 24.9895V24.9895Z" fill="#71D875"/>
<path d="M21.4308 18.4558C21.5863 18.6112 21.6625 18.8143 21.6625 19.0174C21.6625 19.2205 21.5863 19.4235 21.4308 19.579L19.435 21.5748C19.1431 21.8667 18.756 22.0254 18.3467 22.0254C17.9374 22.0254 17.5471 21.8636 17.2583 21.5748L15.2625 19.579C14.9516 19.2681 14.9516 18.7667 15.2625 18.4558C15.5735 18.1448 16.0748 18.1448 16.3858 18.4558L17.5566 19.6266L17.5566 15.1178C17.5566 14.6799 17.912 14.3245 18.3498 14.3245C18.7877 14.3245 19.1431 14.6799 19.1431 15.1178L19.1431 19.6298L20.3139 18.4589C20.6185 18.148 21.1199 18.148 21.4308 18.4558V18.4558Z" fill="#71D875"/>
</g>
<defs>
<clipPath id="clip0_1_250">
<rect width="16.2458" height="16.2458" fill="white" transform="matrix(-4.37114e-08 1 1 4.37114e-08 10.2128 9.9115)"/>
</clipPath>
</defs>
</svg>
