<svg width="37" height="38" viewBox="0 0 37 38" fill="none" xmlns="http://www.w3.org/2000/svg">
<rect x="0.928961" y="1.18036" width="35.3926" height="35.3926" rx="16.826" stroke="#FF2E2E" stroke-width="1.16041"/>
<g clip-path="url(#clip0_1_270)">
<path d="M20.7857 11.6316C20.5953 12.0251 20.7635 12.501 21.1569 12.6914C22.2516 13.2181 23.1781 14.0368 23.8381 15.0616C24.514 16.1119 24.8725 17.3303 24.8725 18.5868C24.8725 22.1914 21.9407 25.1232 18.3361 25.1232C14.7316 25.1232 11.7998 22.1914 11.7998 18.5868C11.7998 17.3303 12.1583 16.1119 12.831 15.0585C13.4878 14.0336 14.4175 13.2149 15.5122 12.6882C15.9056 12.4979 16.0738 12.0251 15.8834 11.6284C15.693 11.235 15.2203 11.0668 14.8236 11.2572C13.4624 11.9108 12.3106 12.9262 11.4951 14.2018C10.6575 15.509 10.2133 17.0257 10.2133 18.5868C10.2133 20.7572 11.0573 22.7974 12.593 24.33C14.1256 25.8657 16.1658 26.7097 18.3361 26.7097C20.5065 26.7097 22.5467 25.8657 24.0793 24.33C25.615 22.7942 26.459 20.7572 26.459 18.5868C26.459 17.0257 26.0148 15.509 25.174 14.2018C24.3553 12.9294 23.2035 11.9108 21.8455 11.2572C21.4488 11.07 20.9761 11.235 20.7857 11.6316Z" fill="#FF2E2E"/>
<path d="M21.4308 18.1649C21.5863 18.0094 21.6625 17.8064 21.6625 17.6033C21.6625 17.4002 21.5863 17.1972 21.4308 17.0417L19.435 15.0459C19.1431 14.754 18.756 14.5953 18.3467 14.5953C17.9374 14.5953 17.5471 14.7571 17.2583 15.0459L15.2625 17.0417C14.9516 17.3526 14.9516 17.854 15.2625 18.1649C15.5735 18.4759 16.0748 18.4759 16.3858 18.1649L17.5566 16.9941L17.5566 21.5029C17.5566 21.9408 17.912 22.2962 18.3498 22.2962C18.7877 22.2962 19.1431 21.9408 19.1431 21.5029L19.1431 16.9909L20.3139 18.1618C20.6185 18.4727 21.1199 18.4727 21.4308 18.1649Z" fill="#FF2E2E"/>
</g>
<defs>
<clipPath id="clip0_1_270">
<rect width="16.2458" height="16.2458" fill="white" transform="translate(10.2128 26.7096) rotate(-90)"/>
</clipPath>
</defs>
</svg>
