<svg width="31" height="31" viewBox="0 0 31 31" fill="none" xmlns="http://www.w3.org/2000/svg">
<path d="M0.94873 13.8333H14.2821V0.5H0.94873V13.8333ZM4.28206 3.83333H10.9487V10.5H4.28206V3.83333ZM0.94873 30.5H14.2821V17.1667H0.94873V30.5ZM4.28206 20.5H10.9487V27.1667H4.28206V20.5ZM17.6154 0.5V13.8333H30.9487V0.5H17.6154ZM27.6154 10.5H20.9487V3.83333H27.6154V10.5ZM17.6321 17.1667H20.9654V20.5H17.6321V17.1667ZM20.9654 20.5H24.2987V23.8333H20.9654V20.5ZM17.6321 23.8333H20.9654V27.1667H17.6321V23.8333ZM24.2987 23.8333H27.6321V27.1667H24.2987V23.8333ZM27.6321 27.1667H30.9654V30.5H27.6321V27.1667ZM20.9654 27.1667H24.2987V30.5H20.9654V27.1667ZM24.2987 17.1667H27.6321V20.5H24.2987V17.1667ZM27.6321 20.5H30.9654V23.8333H27.6321V20.5Z" fill="#71D875"/>
</svg>
