<svg width="21" height="15" viewBox="0 0 21 15" fill="none" xmlns="http://www.w3.org/2000/svg">
<path d="M10.696 0.658478C6.10052 0.658478 2.17595 3.51688 0.585907 7.55174C2.17595 11.5866 6.10052 14.445 10.696 14.445C15.2915 14.445 19.2161 11.5866 20.8061 7.55174C19.2161 3.51688 15.2915 0.658478 10.696 0.658478ZM10.696 12.1472C8.1593 12.1472 6.10052 10.0885 6.10052 7.55174C6.10052 5.01502 8.1593 2.95623 10.696 2.95623C13.2327 2.95623 15.2915 5.01502 15.2915 7.55174C15.2915 10.0885 13.2327 12.1472 10.696 12.1472ZM10.696 4.79443C9.17032 4.79443 7.93872 6.02603 7.93872 7.55174C7.93872 9.07745 9.17032 10.309 10.696 10.309C12.2217 10.309 13.4533 9.07745 13.4533 7.55174C13.4533 6.02603 12.2217 4.79443 10.696 4.79443Z" fill="#71D875"/>
</svg>
