<svg width="37" height="37" viewBox="0 0 37 37" fill="none" xmlns="http://www.w3.org/2000/svg">
<rect x="0.928961" y="0.733343" width="35.3926" height="35.3926" rx="16.826" stroke="#B1B1B1" stroke-width="1.16041"/>
<g clip-path="url(#clip0_1_275)">
<path d="M20.7856 11.1833C20.5953 11.5768 20.7634 12.0527 21.1569 12.2431C22.2516 12.7698 23.1781 13.5885 23.8381 14.6133C24.5139 15.6636 24.8725 16.882 24.8725 18.1385C24.8725 21.7431 21.9406 24.6749 18.3361 24.6749C14.7315 24.6749 11.7997 21.7431 11.7997 18.1385C11.7997 16.882 12.1582 15.6636 12.8309 14.6102C13.4877 13.5853 14.4174 12.7666 15.5121 12.2399C15.9056 12.0495 16.0737 11.5768 15.8833 11.1801C15.693 10.7867 15.2202 10.6185 14.8236 10.8089C13.4623 11.4625 12.3105 12.4779 11.4951 13.7534C10.6574 15.0607 10.2132 16.5774 10.2132 18.1385C10.2132 20.3089 11.0572 22.3491 12.5929 23.8817C14.1255 25.4174 16.1657 26.2614 18.3361 26.2614C20.5064 26.2614 22.5466 25.4174 24.0792 23.8817C25.6149 22.3459 26.459 20.3089 26.459 18.1385C26.459 16.5774 26.0147 15.0607 25.1739 13.7534C24.3553 12.4811 23.2035 11.4625 21.8454 10.8089C21.4488 10.6217 20.976 10.7867 20.7856 11.1833Z" fill="#B1B1B1"/>
</g>
<defs>
<clipPath id="clip0_1_275">
<rect width="16.2458" height="16.2458" fill="white" transform="translate(10.2128 26.2613) rotate(-90)"/>
</clipPath>
</defs>
</svg>
